<?xml version="1.0" encoding="UTF-8"?>
<svg viewBox="0 0 507.65506 381.42542" xmlns="http://www.w3.org/2000/svg">
 <g transform="translate(-108.24 -75.159)">
  <path d="m539.41 104.11c-2e-5 1.7579 0.52895 3.4668 1.5869 5.127s2.417 3.0192 4.0772 4.0772 3.3691 1.587 5.127 1.5869c1.8229 4e-5 3.5563-0.52893 5.2002-1.5869s2.9866-2.4251 4.0283-4.1016 1.5625-3.3772 1.5625-5.1025c-4e-5 -1.7903-0.52087-3.5156-1.5625-5.1758s-2.3926-3.011-4.0527-4.0527-3.3854-1.5624-5.1758-1.5625c-1.7253 6.1e-5 -3.4261 0.52089-5.1025 1.5625s-3.0436 2.3845-4.1016 4.0283-1.5869 3.3773-1.5869 5.2002zm64.795 28.809c-8e-5 -1.7578-0.52091-3.4749-1.5625-5.1514s-2.3845-3.0436-4.0283-4.1016-3.3774-1.5869-5.2002-1.5869-3.5564 0.529-5.2002 1.5869-2.9867 2.4252-4.0283 4.1016-1.5626 3.3936-1.5625 5.1514c-6e-5 1.7253 0.52077 3.4261 1.5625 5.1025s2.3844 3.0436 4.0283 4.1016 3.3772 1.5869 5.2002 1.5869 3.5562-0.52896 5.2002-1.5869 2.9866-2.4251 4.0283-4.1016 1.5624-3.3773 1.5625-5.1025zm-37.305-41.504c3.2877 3.8738 4.9316 8.1055 4.9316 12.695-5e-5 2.6042-0.59413 5.1921-1.7822 7.7637s-2.8402 4.9154-4.9561 7.0312-4.4678 3.7761-7.0557 4.9805-5.2002 1.8067-7.8369 1.8066c-3.7435 3e-5 -7.2673-1.0335-10.571-3.1006s-5.9652-4.777-7.9834-8.1299-3.0274-6.8033-3.0274-10.352c0-6.8684 2.9785-12.532 8.9356-16.992s17.383-6.7382 34.277-6.8359c6.9986 7.5e-5 13.143 0.55346 18.433 1.6602s9.9527 2.7182 13.989 4.834 7.6171 4.6876 10.742 7.7148v10.791c-2.3764-2.246-4.8748-4.2236-7.4951-5.9326s-5.5258-3.1819-8.7158-4.419-6.7546-2.1809-10.693-2.832-8.3659-0.9765-13.281-0.97656c-2.4414 6.4e-5 -5.0782 0.09772-7.9102 0.29297zm48.096 41.504c-9e-5 3.0925-0.54534 5.9896-1.6357 8.6914s-3.1414 5.1758-6.1524 7.4219-7.4057 4.0772-13.184 5.4932-13.176 2.1403-22.192 2.1728c-5.2409 0-10.067-0.33366-14.478-1.001s-8.309-1.595-11.694-2.7832-6.4616-2.6367-9.2285-4.3457-5.3711-3.7354-7.8125-6.0791v-10.791c3.0924 2.9297 6.5186 5.4444 10.278 7.5439s8.1054 3.7354 13.037 4.9072 10.555 1.7578 16.87 1.7578c2.4739 1e-5 5.1106-0.0976 7.9102-0.29297-1.4974-1.8229-2.6856-3.8493-3.5645-6.0791s-1.3184-4.4352-1.3184-6.6162c-5e-5 -2.6367 0.60216-5.2571 1.8066-7.8613s2.8482-4.9479 4.9316-7.0312 4.427-3.7272 7.0312-4.9316 5.2083-1.8066 7.8125-1.8066c2.7668 5e-5 5.485 0.60226 8.1543 1.8066s5.0048 2.8321 7.0068 4.8828 3.5725 4.3864 4.7119 7.0068 1.7089 5.2653 1.709 7.9346z"/>
  <path d="m317.45 102.31c2.3111 1.53 4.4514 3.3285 6.4209 5.3955s3.6376 4.2562 5.0049 6.5674 2.4413 4.7364 3.2227 7.2754 1.1718 5.127 1.1719 7.7637c-7e-5 3.9063-0.90339 7.8125-2.71 11.719s-4.2725 7.4219-7.3975 10.547c-3.1251 3.125-6.6407 5.5908-10.547 7.3975s-7.8288 2.71-11.768 2.71c-3.8737 0-7.7474-0.89519-11.621-2.6855s-7.3975-4.2562-10.571-7.3975-5.6641-6.6569-7.4707-10.547-2.71-7.8043-2.71-11.743c0-3.4179 0.66731-6.8034 2.002-10.156s3.2064-6.486 5.6152-9.3994 5.1269-5.3955 8.1543-7.4463c-2.3438-1.6276-4.4515-3.426-6.3232-5.3955s-3.5238-4.1422-4.956-6.5186-2.5391-4.8746-3.3203-7.4951-1.1719-5.1513-1.1719-7.5928h10.791c-2e-5 2.8972 0.9033 6.0548 2.71 9.4727s4.3701 6.2908 7.6904 8.6182 7.0475 3.4913 11.182 3.4912c3.1901 5.7e-5 6.1198-0.68354 8.7891-2.0508s4.9886-3.1982 6.958-5.4932 3.4423-4.6549 4.4189-7.0801 1.4648-4.7444 1.4648-6.958h10.791c-7e-5 2.6042-0.39069 5.1759-1.1719 7.7148s-1.8555 4.9643-3.2227 7.2754-3.0274 4.4922-4.9805 6.543-4.1016 3.8737-6.4453 5.4687zm-38.184 27.002c-2e-5 2.6042 0.59406 5.1839 1.7822 7.7392s2.8564 4.9072 5.0049 7.0557 4.5003 3.8167 7.0557 5.0049 5.1351 1.7822 7.7393 1.7822c2.6367 0 5.2571-0.60221 7.8613-1.8066s4.9479-2.8483 7.0312-4.9316 3.7272-4.4271 4.9316-7.0312 1.8066-5.2083 1.8066-7.8125c-6e-5 -2.181-0.49648-4.5166-1.4893-7.0068s-2.4496-4.8584-4.3701-7.1045-4.2318-4.0527-6.9336-5.4199-5.6478-2.0507-8.8379-2.0508c-4.1342 5e-5 -7.8614 1.1638-11.182 3.4912s-5.8838 5.2002-7.6904 8.6182-2.71 6.5756-2.71 9.4727z"/>
  <path d="m324.38 306.49c-2.7344 4.6875-5.9083 8.8867-9.5215 12.598l-7.7148-7.7148c4.427-3.0599 8.3007-8.252 11.621-15.576-3.418-7.9427-6.0303-16.919-7.8369-26.929s-3.0681-20.874-3.7842-32.593c-5e-5 -4.3619-0.56157-7.2509-1.6846-8.667s-2.5635-2.124-4.3213-2.124c-2.767 7e-5 -4.5573 0.93594-5.3711 2.8076s-1.2207 4.5329-1.2207 7.9834v64.795h-10.791v-64.795c-3e-5 -4.3945-0.56969-7.2916-1.709-8.6914s-2.5716-2.0995-4.2969-2.0996c-4.3946 7e-5 -6.5918 3.5971-6.5918 10.791v64.795h-10.791v-64.795c-1e-5 -3.6458 0.71614-7.1288 2.1484-10.449s3.4668-6.0058 6.1035-8.0566 5.6803-3.0761 9.1309-3.0762c4.7526 8e-5 8.5937 1.8718 11.523 5.6152 3.2552-3.7434 7.2102-5.6152 11.865-5.6152 4.7526 8e-5 8.5937 1.8718 11.523 5.6152 3.2552-3.7434 7.2265-5.6152 11.914-5.6152 3.4504 8e-5 6.4534 1.0255 9.0088 3.0762s4.4921 4.7364 5.8106 8.0566 1.9774 6.8034 1.9775 10.449c-0.29306 5.306-0.74065 10.612-1.3428 15.918s-1.351 10.417-2.2461 15.332-2.0183 9.7412-3.3691 14.478-2.9704 9.3343-4.8584 13.794c3.5481 7.3568 7.4869 12.549 11.816 15.576l-7.7148 7.7148c-3.6785-3.7761-6.7709-7.9753-9.2774-12.598zm-0.19531-25.879c1.1718-4.362 2.1972-8.9925 3.0762-13.892s1.5868-9.8877 2.124-14.966 0.9358-10.238 1.1963-15.479c-7e-5 -3.3528-0.39883-5.9895-1.1963-7.9102s-2.4008-2.8808-4.8096-2.8809c-2.767 7e-5 -4.5574 0.93594-5.3711 2.8076s-1.2208 4.5329-1.2207 7.9834c0.81374 16.439 2.8808 31.217 6.2012 44.336z"/>
  <path d="m131.14 271.04c-1.8229 2e-5 -3.5889 0.53713-5.2978 1.6113s-3.0843 2.4577-4.126 4.1504-1.5625 3.4343-1.5625 5.2246c-1e-5 1.8229 0.52082 3.5807 1.5625 5.2734s2.417 3.0762 4.126 4.1504 3.4749 1.6113 5.2978 1.6113 3.5888-0.5371 5.2978-1.6113 3.0843-2.4577 4.126-4.1504 1.5625-3.4505 1.5625-5.2734c-4e-5 -1.7904-0.52087-3.5319-1.5625-5.2246s-2.417-3.0762-4.126-4.1504-3.475-1.6113-5.2978-1.6113zm19.385 10.986c-5e-5 2.5716-0.5046 5.013-1.5137 7.3242s-2.4008 4.3538-4.1748 6.1279-3.8412 3.1738-6.2012 4.1992-4.8584 1.5381-7.4951 1.5381c-3.3854 0-6.5593-0.87077-9.5215-2.6123s-5.3141-4.0934-7.0557-7.0557-2.6123-6.1361-2.6123-9.5215c-1e-5 -2.6042 0.5371-5.0862 1.6113-7.4463s2.5472-4.4352 4.4189-6.2256 3.9876-3.1901 6.3477-4.1992 4.8584-1.5136 7.4951-1.5137c1.6927 3e-5 3.304 0.19535 4.834 0.58594-1.2696-2.6367-2.2705-4.72-3.0029-6.25s-1.5869-3.3854-2.5635-5.5664-1.7416-4.2236-2.2949-6.1279-0.8301-3.5888-0.83008-5.0537c-2e-5 -0.35802 0.0651-1.0253 0.19532-2.002 2.7669-15.592 11.768-23.389 27.002-23.389 5.5664 8e-5 10.49 0.29305 14.771 0.8789s8.1542 1.7904 11.621 3.6133 6.2336 4.6062 8.3008 8.3496 3.1005 8.6589 3.1006 14.746c-0.1303 5.7943-0.97665 10.848-2.5391 15.161s-3.4832 8.2683-5.7617 11.865-4.6469 7.4056-7.1045 11.426-4.126 7.8695-5.0049 11.548c-1.0092 4.2643-1.5137 7.5358-1.5137 9.8144-7e-5 3.2878 1.0416 5.3548 3.125 6.2012 1.6275 0.65103 3.1249 0.97655 4.4922 0.97657 1.2044-2e-5 2.3193-0.22788 3.3447-0.6836s2.0914-1.1475 3.1982-2.0752 2.1646-1.9206 3.1738-2.9785l3.2715-3.4424 6.4941 7.1777c-3.9389 4.1341-7.544 7.0882-10.815 8.8623s-6.421 2.6611-9.4482 2.6611c-2.5391-2e-5 -5.1108-0.53713-7.7148-1.6113-6.0873-2.3112-9.1309-7.5033-9.1309-15.576-5e-5 -3.4505 0.63471-7.6497 1.9043-12.598 0.81375-3.125 1.9693-6.1035 3.4668-8.9355s3.8167-6.9173 6.958-12.256 5.4524-9.6679 6.9336-12.988 2.303-6.4941 2.4658-9.5215c0.065-0.68354 0.0976-1.6927 0.0977-3.0273-8e-5 -5.013-1.0011-8.7483-3.0029-11.206s-4.8585-4.0771-8.5693-4.8584-9.0821-1.3508-16.113-1.709c-3.7761 7e-5 -6.8441 0.56973-9.2041 1.709s-4.126 2.7507-5.2978 4.834-1.9369 4.6387-2.2949 7.666c-3e-5 2.3112 0.47198 4.7526 1.416 7.3242s2.4251 6.1117 4.4434 10.62 3.5888 8.545 4.7119 12.109 1.6845 7.0068 1.6846 10.327c-4e-5 1.2696-0.0326 2.1973-0.0977 2.7832z"/>
  <path d="m445.04 150.89v-64.795h-27.979v64.795zm-38.77 0v-64.795h-14.209v-10.791h77.979v10.791h-14.16v64.795h14.16v10.791h-77.979v-10.791z"/>
  <path d="m149.65 97.132c-1.4649-0.65098-3.2715-1.5706-5.4199-2.7588l-6.3721-3.54c-2.0996-1.1718-3.9551-2.1565-5.5664-2.9541s-3.0518-1.3427-4.3213-1.6357c-1.1719-0.26035-2.2787-0.39056-3.3203-0.39063-2.5391 6.9e-5 -3.8086 1.1394-3.8086 3.418-2e-5 0.71621 0.0814 1.4649 0.24414 2.2461s0.40688 1.7009 0.73242 2.7588 0.6022 1.9776 0.83008 2.7588c0.65102 2.3438 1.3021 4.126 1.9531 5.3467s1.5218 2.2217 2.6123 3.0029 2.775 1.6114 5.0537 2.4902v10.791c-1.2696-0.65101-3.182-1.5299-5.7373-2.6367s-4.6794-2.2949-6.3721-3.5644-3.2552-3.1331-4.6875-5.5908-2.6367-5.7373-3.6133-9.8389c-0.7487-2.8645-1.123-5.6966-1.123-8.4961 0-4.5572 1.18-7.9264 3.54-10.107s5.5583-3.2714 9.5947-3.2715c1.3021 7.9e-5 2.6692 0.09774 4.1016 0.29297 3.3854 0.55346 6.3395 1.2859 8.8623 2.1973s4.8014 1.9858 6.8359 3.2227 4.5003 2.8972 7.3975 4.9805h8.0078c2.8971-2.0833 5.3548-3.7434 7.373-4.9805s4.3049-2.3111 6.8604-3.2227 5.5094-1.6438 8.8623-2.1973c1.3671-0.19523 2.7343-0.29289 4.1016-0.29297 2.5715 7.9e-5 4.8502 0.46395 6.8359 1.3916s3.5237 2.3845 4.6143 4.3701 1.6356 4.5248 1.6357 7.6172c-9e-5 2.7995-0.37444 5.6316-1.123 8.4961-0.97665 4.0691-2.1729 7.3487-3.5889 9.8389s-2.9623 4.362-4.6387 5.6152-3.8005 2.4333-6.3721 3.54-4.4923 1.9857-5.7617 2.6367v-10.791c2.3111-0.87886 4.0038-1.7171 5.0781-2.5146s1.9286-1.7984 2.5635-3.0029 1.2776-2.9785 1.9287-5.3223c1.2043-3.9062 1.8066-6.4941 1.8066-7.7637-8e-5 -2.2786-1.2696-3.4179-3.8086-3.418-1.0418 6.9e-5 -2.1322 0.13028-3.2715 0.39063-1.3998 0.32559-3.0844 0.99291-5.0537 2.002s-4.8178 2.5554-8.5449 4.6387-6.4372 3.4994-8.1299 4.248v64.697h-10.791z"/>
  <path d="m585.33 236.28v61.23c-6e-5 7.194 2.1972 10.791 6.5918 10.791 2.4088-2e-5 4.012-1.0335 4.8096-3.1006s1.1962-4.8096 1.1963-8.2275l-7.2266 4.3457v-11.035l12.598-7.666 12.598 9.082v9.6191l-7.1777-4.3457c-9e-5 3.6458-0.6674 7.1859-2.002 10.62s-3.2716 6.2093-5.8106 8.3252-5.5339 3.1738-8.9844 3.1738-6.5024-1.0254-9.1553-3.0762-4.6957-4.7363-6.1279-8.0566-2.1485-6.8034-2.1484-10.449v-61.23c-6e-5 -4.3619-0.56158-7.2509-1.6846-8.667s-2.5635-2.124-4.3213-2.124c-2.7019 7e-5 -4.476 0.94408-5.3223 2.832s-1.2696 4.5411-1.2695 7.959v64.795h-10.791v-64.795c-3e-5 -4.3945-0.56969-7.2916-1.709-8.6914s-2.5716-2.0995-4.2969-2.0996c-4.3946 7e-5 -6.5918 3.5971-6.5918 10.791v64.795h-10.791v-64.795c0-3.6458 0.71614-7.1288 2.1484-10.449s3.4668-6.0058 6.1035-8.0566 5.6803-3.0761 9.1308-3.0762c4.7526 8e-5 8.5937 1.8718 11.523 5.6152 3.2552-3.7434 7.2102-5.6152 11.865-5.6152 3.483 8e-5 6.486 1.0173 9.0088 3.0518s4.4596 4.7201 5.8105 8.0566 2.0263 6.8279 2.0264 10.474z"/>
  <path d="m146.03 414.28h-8.9844v-10.205h19.189l28.711-28.76h-11.914v-9.6191h28.809v30.176h-10.791v-11.768l-20.02 19.971h9.1797v10.205h-19.385l-37.793 37.793h-14.795z"/>
  <path d="m387.86 283.4h86.377v10.303h-86.377zm32.373-10.84h-32.373v-10.889h21.582c-3e-5 -2.6367 0.60218-5.249 1.8066-7.8369s2.8483-4.9234 4.9316-7.0068 4.427-3.7272 7.0312-4.9316 5.2246-1.8066 7.8613-1.8066 5.2734 0.61041 7.9102 1.831 4.9641 2.8402 6.9824 4.8584 3.6376 4.3458 4.8584 6.9824 1.831 5.2735 1.8311 7.9102h21.582v10.889h-32.373v-10.889c-6e-5 -1.7578-0.52903-3.4668-1.5869-5.127s-2.417-3.0192-4.0772-4.0771-3.3692-1.5869-5.127-1.5869c-1.7904 6e-5 -3.5157 0.52903-5.1758 1.5869s-3.0192 2.417-4.0772 4.0771-1.587 3.3692-1.5869 5.127z"/>
  <path d="m474.24 436.25-14.404-14.404-14.355 14.404-14.404-14.404-14.404 14.404-14.404-14.404-14.404 14.404v-12.012l14.404-14.404 14.404 14.404 14.404-14.404 14.404 14.404 14.355-14.404 14.404 14.404zm0-28.32-14.404-14.404-14.355 14.404-14.404-14.404-14.404 14.404-14.404-14.404-14.404 14.404v-12.012l14.404-14.404 14.404 14.404 14.404-14.404 14.404 14.404 14.355-14.404 14.404 14.404z"/>
  <path d="m328.07 388.86c1.2694-0.19525 2.4495-0.69167 3.54-1.4893s1.9693-1.8147 2.6367-3.0518 1.0009-2.4902 1.001-3.7598c-9e-5 -1.4322-0.39885-2.7913-1.1963-4.0772s-1.8393-2.3274-3.125-3.125-2.6449-1.1962-4.0772-1.1963c-2.0509 8e-5 -3.9633 0.9034-5.7373 2.71s-2.6612 3.768-2.6611 5.8838c-8e-5 1.9206 0.71607 3.6784 2.1484 5.2734 1.4322 1.5951 3.1249 2.5391 5.0781 2.832zm-8.1055 10.791h-5.5176l-23.389 54.492h-10.791l-27.002-75.586h11.572l20.801 59.619 20.801-49.316h3.125c-1.2696-2.6041-1.9044-5.3059-1.9043-8.1055-6e-5 -3.4179 0.9114-6.6406 2.7344-9.668s4.2642-5.4361 7.3242-7.2266 6.3476-2.6855 9.8633-2.6855c3.3202 8e-5 6.4208 0.87899 9.3018 2.6367s5.1676 4.1342 6.8604 7.1289 2.539 6.2012 2.5391 9.6191c-1e-4 2.7019-0.54535 5.2491-1.6358 7.6416s-2.6205 4.4922-4.5898 6.2988-4.1423 3.1332-6.5186 3.9795c2.3762 1.9532 4.3456 4.0202 5.9082 6.2012s3.2388 4.9154 5.0293 8.2031c1.2694 2.3763 2.2541 4.8747 2.9541 7.4951s1.0497 5.249 1.0498 7.8857c-1e-4 5.0781-1.3429 9.7819-4.0283 14.111s-6.7953 7.7799-12.329 10.352-12.288 3.8574-20.264 3.8574v-10.303c5.4361-0.0325 10.034-0.83822 13.794-2.417s6.5673-3.7354 8.4229-6.4697 2.7831-5.8431 2.7832-9.3262c-9e-5 -4.7851-1.6277-9.847-4.8828-15.186-1.6602-2.6692-3.3204-4.8909-4.9805-6.665s-4.004-3.9632-7.0312-6.5674z"/>
  <path d="m579.69 403c0.13016-4.3619 0.61844-8.2519 1.4648-11.67s2.0589-6.5755 3.6377-9.4726 3.54-5.607 5.8838-8.1299 5.2408-5.2001 8.6914-8.0322h12.744c-3.5808 2.9949-6.5919 5.7292-9.0332 8.2031s-4.5574 5.1352-6.3477 7.9834-3.2064 5.9571-4.248 9.3262-1.709 7.2998-2.002 11.792h18.018v11.279h-18.018c0.2929 5.7292 1.302 10.75 3.0273 15.063s4.0934 8.2113 7.1045 11.694 6.844 7.1615 11.499 11.035h-12.744c-4.5248-3.776-8.1788-7.4056-10.962-10.889s-4.8991-7.3649-6.3476-11.646-2.238-9.3668-2.3682-15.259h-15.82c-0.13025 5.892-0.91963 10.978-2.3682 15.259s-3.5645 8.1624-6.3477 11.646-6.4372 7.1126-10.962 10.889h-12.695c4.8177-4.0039 8.7077-7.7148 11.67-11.133s5.2978-7.2672 7.0068-11.548 2.6774-9.318 2.9053-15.112h-17.969v-11.279h17.969c-0.32555-5.7617-1.3347-10.734-3.0274-14.917s-4.0365-7.9996-7.0312-11.45-6.836-7.0963-11.523-10.938h12.695c3.4505 2.8321 6.3558 5.5176 8.7158 8.0566s4.3212 5.241 5.8838 8.1055 2.7669 6.014 3.6133 9.4482 1.3346 7.3324 1.4648 11.694z"/>
 </g>
</svg>
